<svg xmlns="http://www.w3.org/2000/svg" viewBox="0 0 887 947">
  <g fill="currentColor">
    <path d="M 382.0 907.5 L 357.0 907.5 L 333.0 906.5 L 311.0 903.5 L 290.0 899.5 L 269.5 895.0 L 250.0 889.5 L 232.0 882.5 L 215.0 874.5 L 199.0 865.5 L 183.5 856.0 L 169.5 845.0 L 156.0 833.5 L 143.5 821.0 L 131.5 808.0 L 120.5 794.0 L 110.0 779.5 L 100.5 764.0 L 91.5 748.0 L 83.5 731.0 L 75.5 714.0 L 68.5 696.0 L 62.5 677.0 L 57.0 657.5 L 52.0 637.5 L 47.5 617.0 L 44.5 595.0 L 42.0 572.5 L 40.5 549.0 L 39.5 525.0 L 39.5 500.0 L 40.5 476.0 L 41.5 452.0 L 43.5 429.0 L 48.5 409.0 L 58.5 394.0 L 71.5 382.0 L 86.5 372.0 L 103.0 363.5 L 121.0 356.5 L 139.5 350.0 L 159.0 344.5 L 178.0 338.5 L 193.5 329.0 L 206.5 317.0 L 221.0 306.5 L 237.0 297.5 L 254.0 289.5 L 272.0 282.5 L 290.5 276.0 L 310.0 270.5 L 330.5 266.0 L 351.0 261.5 L 371.0 256.5 L 391.5 252.0 L 411.5 247.0 L 430.0 240.5 L 446.5 232.0 L 460.5 221.0 L 472.5 208.0 L 481.5 192.0 L 486.5 172.0 L 486.5 149.0 L 481.5 129.0 L 472.5 113.0 L 461.0 99.5 L 445.5 90.0 L 427.0 83.5 L 403.0 82.5 L 383.0 87.5 L 367.5 97.0 L 355.5 110.0 L 347.5 127.0 L 346.5 149.0 L 353.5 167.0 L 368.0 177.5 L 390.5 179.0 L 407.0 170.5 L 416.0 154.5 L 418.0 135.5 L 430.5 148.0 L 435.5 168.0 L 431.5 189.0 L 421.5 204.0 L 407.0 214.5 L 388.0 220.5 L 365.0 220.5 L 346.0 214.5 L 331.0 204.5 L 318.5 192.0 L 309.5 176.0 L 303.5 157.0 L 302.5 133.0 L 306.5 112.0 L 314.5 95.0 L 324.0 79.5 L 336.5 67.0 L 351.0 56.5 L 367.0 47.5 L 386.5 42.0 L 409.0 39.5 L 433.0 40.5 L 452.5 46.0 L 470.0 53.5 L 485.0 63.5 L 498.0 75.5 L 509.5 89.0 L 518.5 105.0 L 525.5 123.0 L 530.0 143.5 L 530.5 166.0 L 528.0 188.5 L 522.0 207.5 L 513.5 224.0 L 503.5 239.0 L 491.5 252.0 L 477.5 263.0 L 462.0 272.5 L 445.0 280.5 L 427.0 287.5 L 407.0 292.5 L 387.0 297.5 L 366.5 302.0 L 346.0 306.5 L 326.0 311.5 L 306.0 316.5 L 287.0 322.5 L 269.0 329.5 L 253.0 338.5 L 237.5 348.0 L 224.0 359.5 L 211.5 372.0 L 194.0 379.5 L 174.0 384.5 L 155.0 390.5 L 136.0 396.5 L 119.0 404.5 L 102.5 413.0 L 89.5 425.0 L 99.0 438.5 L 114.5 448.0 L 131.5 456.0 L 150.0 462.5 L 169.0 468.5 L 189.0 473.5 L 201.5 463.0 L 212.5 449.0 L 225.0 436.5 L 238.5 425.0 L 253.0 414.5 L 269.0 405.5 L 286.0 397.5 L 305.0 391.5 L 325.0 386.5 L 347.0 383.5 L 372.0 383.5 L 394.0 386.5 L 414.5 391.0 L 433.0 397.5 L 450.5 405.0 L 466.0 414.5 L 481.0 424.5 L 494.5 436.0 L 506.5 449.0 L 517.5 463.0 L 528.0 477.5 L 548.0 472.5 L 568.0 467.5 L 587.0 461.5 L 605.0 454.5 L 621.5 446.0 L 636.5 436.0 L 639.0 420.5 L 624.5 410.0 L 608.0 401.5 L 590.0 394.5 L 571.5 388.0 L 552.0 382.5 L 531.0 378.5 L 533.5 388.0 L 542.0 404.5 L 544.5 427.0 L 537.5 434.0 L 526.5 420.0 L 514.0 407.5 L 500.5 396.0 L 485.5 386.0 L 469.5 377.0 L 452.5 369.0 L 434.0 362.5 L 414.5 357.0 L 394.0 352.5 L 371.0 350.5 L 348.0 350.5 L 325.0 352.5 L 304.0 356.5 L 317.0 349.5 L 336.0 343.5 L 356.0 338.5 L 376.0 333.5 L 398.0 330.5 L 419.0 326.5 L 441.0 323.5 L 464.0 325.5 L 487.0 327.5 L 509.0 330.5 L 530.5 334.0 L 551.0 338.5 L 571.0 343.5 L 591.0 348.5 L 609.5 355.0 L 627.0 362.5 L 644.0 370.5 L 659.0 380.5 L 672.0 392.5 L 682.5 407.0 L 687.5 427.0 L 683.0 447.5 L 672.5 462.0 L 659.0 473.5 L 644.0 483.5 L 627.5 492.0 L 610.0 499.5 L 591.0 505.5 L 572.0 511.5 L 552.0 516.5 L 531.0 520.5 L 510.0 524.5 L 488.0 527.5 L 466.0 530.5 L 443.0 532.5 L 420.0 534.5 L 396.0 535.5 L 371.0 535.5 L 346.0 535.5 L 322.0 534.5 L 298.0 533.5 L 275.5 531.0 L 253.0 528.5 L 231.0 525.5 L 213.5 529.0 L 207.5 548.0 L 204.5 570.0 L 203.5 594.0 L 206.5 616.0 L 212.0 635.5 L 219.5 653.0 L 228.0 669.5 L 238.5 684.0 L 250.5 697.0 L 263.5 709.0 L 278.0 719.5 L 294.0 728.5 L 312.0 735.5 L 332.0 740.5 L 354.0 743.5 L 378.0 742.5 L 399.0 738.5 L 418.0 732.5 L 434.5 724.0 L 450.0 714.5 L 463.5 703.0 L 476.0 690.5 L 487.0 676.5 L 501.0 673.5 L 516.5 683.0 L 527.5 693.0 L 517.5 708.0 L 506.5 722.0 L 494.0 734.5 L 480.5 746.0 L 465.5 756.0 L 450.0 765.5 L 432.5 773.0 L 414.0 779.5 L 393.0 783.5 L 371.0 786.5 L 346.0 786.5 L 324.0 783.5 L 303.5 779.0 L 285.0 772.5 L 268.0 764.5 L 252.5 755.0 L 238.0 744.5 L 224.5 733.0 L 212.0 720.5 L 200.5 707.0 L 190.5 692.0 L 181.5 676.0 L 173.5 659.0 L 167.5 640.0 L 162.5 620.0 L 159.5 598.0 L 159.5 573.0 L 162.5 551.0 L 167.5 531.0 L 170.0 513.5 L 150.5 508.0 L 131.5 502.0 L 113.5 495.0 L 96.5 487.0 L 82.5 483.0 L 82.5 508.0 L 82.5 533.0 L 84.5 556.0 L 86.5 579.0 L 90.0 600.5 L 93.5 622.0 L 98.5 642.0 L 103.5 662.0 L 110.0 680.5 L 117.0 698.5 L 124.5 716.0 L 133.0 732.5 L 142.5 748.0 L 152.5 763.0 L 163.5 777.0 L 175.0 790.5 L 187.5 803.0 L 201.0 814.5 L 216.0 824.5 L 232.0 833.5 L 249.0 841.5 L 267.0 848.5 L 286.0 854.5 L 307.0 858.5 L 329.0 861.5 L 352.0 863.5 L 377.0 863.5 L 400.0 861.5 L 423.0 859.5 L 443.0 854.5 L 463.0 849.5 L 481.0 842.5 L 498.0 834.5 L 514.0 825.5 L 529.0 815.5 L 543.0 804.5 L 555.5 792.0 L 567.5 779.0 L 578.5 765.0 L 588.5 750.0 L 598.0 734.5 L 606.5 718.0 L 614.5 701.0 L 621.5 683.0 L 627.5 664.0 L 633.5 645.0 L 638.0 624.5 L 641.5 603.0 L 645.0 581.5 L 647.5 559.0 L 651.5 538.0 L 658.5 520.0 L 667.5 504.0 L 679.0 490.5 L 693.0 479.5 L 710.0 471.5 L 730.0 466.5 L 753.0 464.5 L 774.0 468.5 L 792.0 475.5 L 807.5 485.0 L 820.5 497.0 L 831.5 511.0 L 840.0 527.5 L 845.5 547.0 L 838.0 560.5 L 813.0 560.5 L 800.5 548.0 L 792.0 531.5 L 779.5 519.0 L 762.5 511.0 L 740.0 508.5 L 721.0 514.5 L 706.5 525.0 L 696.5 540.0 L 691.5 560.0 L 689.5 583.0 L 686.5 605.0 L 682.5 626.0 L 677.5 646.0 L 672.5 666.0 L 667.0 685.5 L 660.5 704.0 L 653.0 721.5 L 645.0 738.5 L 636.5 755.0 L 627.5 771.0 L 617.5 786.0 L 606.5 800.0 L 595.5 814.0 L 583.0 826.5 L 570.5 839.0 L 556.5 850.0 L 541.5 860.0 L 526.0 869.5 L 509.0 877.5 L 492.0 885.5 L 473.0 891.5 L 453.5 897.0 L 433.0 901.5 L 411.0 904.5 L 388.0 906.5 Z"/>
    <path d="M 389.5 492.0 L 390.0 491.5 L 391.0 491.5 L 392.0 491.5 L 393.0 491.5 L 394.0 491.5 L 395.0 491.5 L 396.0 491.5 L 397.0 491.5 L 398.0 491.5 L 399.0 491.5 L 400.0 491.5 L 401.0 491.5 L 402.0 491.5 L 403.0 491.5 L 404.0 491.5 L 405.0 491.5 L 406.0 491.5 L 407.0 491.5 L 408.0 491.5 L 409.0 491.5 L 410.0 491.5 L 411.0 491.5 L 412.0 491.5 L 413.0 491.5 L 413.5 491.0 L 414.0 490.5 L 415.0 490.5 L 416.0 490.5 L 417.0 490.5 L 418.0 490.5 L 419.0 490.5 L 420.0 490.5 L 421.0 490.5 L 422.0 490.5 L 423.0 490.5 L 424.0 490.5 L 425.0 490.5 L 426.0 490.5 L 427.0 490.5 L 428.0 490.5 L 429.0 490.5 L 429.5 490.0 L 430.0 489.5 L 431.0 489.5 L 432.0 489.5 L 433.0 489.5 L 434.0 489.5 L 435.0 489.5 L 436.0 489.5 L 437.0 489.5 L 438.0 489.5 L 439.0 489.5 L 440.0 489.5 L 441.0 489.5 L 441.5 489.0 L 442.0 488.5 L 443.0 488.5 L 444.0 488.5 L 445.0 488.5 L 446.0 488.5 L 447.0 488.5 L 448.0 488.5 L 449.0 488.5 L 450.0 488.5 L 451.0 488.5 L 451.5 488.0 L 452.0 487.5 L 453.0 487.5 L 454.0 487.5 L 455.0 487.5 L 456.0 487.5 L 457.0 487.5 L 458.0 487.5 L 459.0 487.5 L 460.0 487.5 L 461.0 487.5 L 461.5 487.0 L 462.0 486.5 L 463.0 486.5 L 464.0 486.5 L 465.0 486.5 L 466.0 486.5 L 467.0 486.5 L 468.0 486.5 L 469.0 486.5 L 469.5 486.0 L 470.0 485.5 L 471.0 485.5 L 472.0 485.5 L 473.0 485.5 L 474.0 485.5 L 475.0 485.5 L 476.0 485.5 L 476.5 485.0 L 477.0 484.5 L 478.0 484.5 L 478.5 484.0 L 478.0 483.5 L 477.5 483.0 L 477.5 482.0 L 477.0 481.5 L 476.5 481.0 L 476.0 480.5 L 475.5 480.0 L 475.0 479.5 L 474.5 479.0 L 474.0 478.5 L 473.5 478.0 L 473.0 477.5 L 472.5 477.0 L 472.5 476.0 L 472.0 475.5 L 471.5 475.0 L 471.0 474.5 L 470.5 474.0 L 470.0 473.5 L 469.5 473.0 L 469.0 472.5 L 468.5 472.0 L 468.0 471.5 L 467.5 471.0 L 467.0 470.5 L 466.5 470.0 L 466.0 469.5 L 465.5 469.0 L 465.0 468.5 L 464.5 468.0 L 464.0 467.5 L 463.5 467.0 L 463.0 466.5 L 462.5 466.0 L 462.0 465.5 L 461.5 465.0 L 461.0 464.5 L 460.5 464.0 L 460.0 463.5 L 459.0 463.5 L 458.5 463.0 L 458.0 462.5 L 457.5 462.0 L 457.0 461.5 L 456.5 461.0 L 456.0 460.5 L 455.5 460.0 L 455.0 459.5 L 454.5 459.0 L 454.0 458.5 L 453.0 458.5 L 452.5 458.0 L 452.0 457.5 L 451.5 457.0 L 451.0 456.5 L 450.5 456.0 L 450.0 455.5 L 449.0 455.5 L 448.5 455.0 L 448.0 454.5 L 447.5 454.0 L 447.0 453.5 L 446.0 453.5 L 445.5 453.0 L 445.0 452.5 L 444.5 452.0 L 444.0 451.5 L 443.0 451.5 L 442.5 451.0 L 442.0 450.5 L 441.5 450.0 L 441.0 449.5 L 440.0 449.5 L 439.5 449.0 L 439.0 448.5 L 438.5 448.0 L 438.0 447.5 L 437.0 447.5 L 436.5 447.0 L 436.0 446.5 L 435.0 446.5 L 434.5 446.0 L 434.0 445.5 L 433.0 445.5 L 432.5 445.0 L 432.0 444.5 L 431.0 444.5 L 430.5 444.0 L 430.0 443.5 L 429.0 443.5 L 428.5 443.0 L 428.0 442.5 L 427.0 442.5 L 426.5 442.0 L 426.0 441.5 L 425.0 441.5 L 424.5 441.0 L 424.0 440.5 L 423.0 440.5 L 422.5 440.0 L 422.0 439.5 L 421.0 439.5 L 420.5 439.0 L 420.0 438.5 L 419.0 438.5 L 418.0 438.5 L 417.5 438.0 L 417.0 437.5 L 416.0 437.5 L 415.5 437.0 L 415.0 436.5 L 414.0 436.5 L 413.0 436.5 L 412.5 436.0 L 412.0 435.5 L 411.0 435.5 L 410.0 435.5 L 409.5 435.0 L 409.0 434.5 L 408.0 434.5 L 407.0 434.5 L 406.5 434.0 L 406.0 433.5 L 405.0 433.5 L 404.0 433.5 L 403.5 433.0 L 403.0 432.5 L 402.0 432.5 L 401.0 432.5 L 400.0 432.5 L 399.5 432.0 L 399.0 431.5 L 398.0 431.5 L 397.0 431.5 L 396.0 431.5 L 395.5 431.0 L 395.0 430.5 L 394.0 430.5 L 393.0 430.5 L 392.0 430.5 L 391.5 430.0 L 391.0 429.5 L 390.0 429.5 L 389.0 429.5 L 388.0 429.5 L 387.0 429.5 L 386.0 429.5 L 385.5 429.0 L 385.0 428.5 L 384.0 428.5 L 383.0 428.5 L 382.0 428.5 L 381.0 428.5 L 380.0 428.5 L 379.0 428.5 L 378.5 428.0 L 378.0 427.5 L 377.0 427.5 L 376.0 427.5 L 375.0 427.5 L 374.0 427.5 L 373.0 427.5 L 372.0 427.5 L 371.0 427.5 L 370.0 427.5 L 369.0 427.5 L 368.0 427.5 L 367.0 427.5 L 366.0 427.5 L 365.0 427.5 L 364.0 427.5 L 363.0 427.5 L 362.0 427.5 L 361.0 427.5 L 360.0 427.5 L 359.0 427.5 L 358.0 427.5 L 357.0 427.5 L 356.0 427.5 L 355.0 427.5 L 354.0 427.5 L 353.0 427.5 L 352.0 427.5 L 351.0 427.5 L 350.0 427.5 L 349.0 427.5 L 348.0 427.5 L 347.0 427.5 L 346.0 427.5 L 345.0 427.5 L 344.0 427.5 L 343.0 427.5 L 342.0 427.5 L 341.5 428.0 L 341.0 428.5 L 340.0 428.5 L 339.0 428.5 L 338.0 428.5 L 337.0 428.5 L 336.0 428.5 L 335.0 428.5 L 334.5 429.0 L 334.0 429.5 L 333.0 429.5 L 332.0 429.5 L 331.0 429.5 L 330.0 429.5 L 329.0 429.5 L 328.5 430.0 L 328.0 430.5 L 327.0 430.5 L 326.0 430.5 L 325.0 430.5 L 324.0 430.5 L 323.5 431.0 L 323.0 431.5 L 322.0 431.5 L 321.0 431.5 L 320.0 431.5 L 319.5 432.0 L 319.0 432.5 L 318.0 432.5 L 317.0 432.5 L 316.5 433.0 L 316.0 433.5 L 315.0 433.5 L 314.0 433.5 L 313.5 434.0 L 313.0 434.5 L 312.0 434.5 L 311.0 434.5 L 310.0 434.5 L 309.5 435.0 L 309.0 435.5 L 308.0 435.5 L 307.5 436.0 L 307.0 436.5 L 306.0 436.5 L 305.0 436.5 L 304.5 437.0 L 304.0 437.5 L 303.0 437.5 L 302.5 438.0 L 302.0 438.5 L 301.0 438.5 L 300.0 438.5 L 299.5 439.0 L 299.0 439.5 L 298.0 439.5 L 297.5 440.0 L 297.0 440.5 L 296.0 440.5 L 295.5 441.0 L 295.0 441.5 L 294.0 441.5 L 293.0 441.5 L 292.5 442.0 L 292.0 442.5 L 291.0 442.5 L 290.5 443.0 L 290.0 443.5 L 289.0 443.5 L 288.5 444.0 L 288.0 444.5 L 287.5 445.0 L 287.0 445.5 L 286.0 445.5 L 285.5 446.0 L 285.0 446.5 L 284.0 446.5 L 283.5 447.0 L 283.0 447.5 L 282.0 447.5 L 281.5 448.0 L 281.0 448.5 L 280.5 449.0 L 280.0 449.5 L 279.0 449.5 L 278.5 450.0 L 278.0 450.5 L 277.0 450.5 L 276.5 451.0 L 276.0 451.5 L 275.5 452.0 L 275.0 452.5 L 274.0 452.5 L 273.5 453.0 L 273.0 453.5 L 272.5 454.0 L 272.0 454.5 L 271.5 455.0 L 271.0 455.5 L 270.0 455.5 L 269.5 456.0 L 269.0 456.5 L 268.5 457.0 L 268.0 457.5 L 267.0 457.5 L 266.5 458.0 L 266.0 458.5 L 265.5 459.0 L 265.0 459.5 L 264.5 460.0 L 264.0 460.5 L 263.5 461.0 L 263.0 461.5 L 262.0 461.5 L 261.5 462.0 L 261.0 462.5 L 260.5 463.0 L 260.0 463.5 L 259.5 464.0 L 259.0 464.5 L 258.5 465.0 L 258.0 465.5 L 257.5 466.0 L 257.0 466.5 L 256.5 467.0 L 256.0 467.5 L 255.5 468.0 L 255.0 468.5 L 254.5 469.0 L 254.0 469.5 L 253.5 470.0 L 253.0 470.5 L 252.5 471.0 L 252.0 471.5 L 251.5 472.0 L 251.0 472.5 L 250.5 473.0 L 250.0 473.5 L 249.5 474.0 L 249.0 474.5 L 248.5 475.0 L 248.0 475.5 L 247.5 476.0 L 247.5 477.0 L 247.0 477.5 L 246.5 478.0 L 246.0 478.5 L 245.5 479.0 L 245.0 479.5 L 244.5 480.0 L 244.0 480.5 L 243.5 481.0 L 243.0 481.5 L 242.5 482.0 L 242.5 483.0 L 243.0 483.5 L 244.0 483.5 L 245.0 483.5 L 246.0 483.5 L 247.0 483.5 L 247.5 484.0 L 248.0 484.5 L 249.0 484.5 L 250.0 484.5 L 251.0 484.5 L 252.0 484.5 L 253.0 484.5 L 254.0 484.5 L 254.5 485.0 L 255.0 485.5 L 256.0 485.5 L 257.0 485.5 L 258.0 485.5 L 259.0 485.5 L 260.0 485.5 L 261.0 485.5 L 261.5 486.0 L 262.0 486.5 L 263.0 486.5 L 264.0 486.5 L 265.0 486.5 L 266.0 486.5 L 267.0 486.5 L 268.0 486.5 L 269.0 486.5 L 269.5 487.0 L 270.0 487.5 L 271.0 487.5 L 272.0 487.5 L 273.0 487.5 L 274.0 487.5 L 275.0 487.5 L 276.0 487.5 L 277.0 487.5 L 278.0 487.5 L 278.5 488.0 L 279.0 488.5 L 280.0 488.5 L 281.0 488.5 L 282.0 488.5 L 283.0 488.5 L 284.0 488.5 L 285.0 488.5 L 286.0 488.5 L 287.0 488.5 L 288.0 488.5 L 288.5 489.0 L 289.0 489.5 L 290.0 489.5 L 291.0 489.5 L 292.0 489.5 L 293.0 489.5 L 294.0 489.5 L 295.0 489.5 L 296.0 489.5 L 297.0 489.5 L 298.0 489.5 L 299.0 489.5 L 300.0 489.5 L 300.5 490.0 L 301.0 490.5 L 302.0 490.5 L 303.0 490.5 L 304.0 490.5 L 305.0 490.5 L 306.0 490.5 L 307.0 490.5 L 308.0 490.5 L 309.0 490.5 L 310.0 490.5 L 311.0 490.5 L 312.0 490.5 L 313.0 490.5 L 314.0 490.5 L 315.0 490.5 L 316.0 490.5 L 316.5 491.0 L 317.0 491.5 L 318.0 491.5 L 319.0 491.5 L 320.0 491.5 L 321.0 491.5 L 322.0 491.5 L 323.0 491.5 L 324.0 491.5 L 325.0 491.5 L 326.0 491.5 L 327.0 491.5 L 328.0 491.5 L 329.0 491.5 L 330.0 491.5 L 331.0 491.5 L 332.0 491.5 L 333.0 491.5 L 334.0 491.5 L 335.0 491.5 L 336.0 491.5 L 337.0 491.5 L 338.0 491.5 L 339.0 491.5 L 340.0 491.5 L 341.0 491.5 L 341.5 492.0 L 342.0 492.5 L 343.0 492.5 L 344.0 492.5 L 345.0 492.5 L 346.0 492.5 L 347.0 492.5 L 348.0 492.5 L 349.0 492.5 L 350.0 492.5 L 351.0 492.5 L 352.0 492.5 L 353.0 492.5 L 354.0 492.5 L 355.0 492.5 L 356.0 492.5 L 357.0 492.5 L 358.0 492.5 L 359.0 492.5 L 360.0 492.5 L 361.0 492.5 L 362.0 492.5 L 363.0 492.5 L 364.0 492.5 L 365.0 492.5 L 366.0 492.5 L 367.0 492.5 L 368.0 492.5 L 369.0 492.5 L 370.0 492.5 L 371.0 492.5 L 372.0 492.5 L 373.0 492.5 L 374.0 492.5 L 375.0 492.5 L 376.0 492.5 L 377.0 492.5 L 378.0 492.5 L 379.0 492.5 L 380.0 492.5 L 381.0 492.5 L 382.0 492.5 L 383.0 492.5 L 384.0 492.5 L 385.0 492.5 L 386.0 492.5 L 387.0 492.5 L 388.0 492.5 L 389.0 492.5 L 389.5 492.0 Z"/>
    <path d="M 710.0 738.5 L 709.0 738.5 L 708.0 738.5 L 707.0 738.5 L 706.0 738.5 L 705.0 738.5 L 704.0 738.5 L 703.0 738.5 L 702.0 738.5 L 701.0 738.5 L 700.0 738.5 L 699.0 738.5 L 698.0 738.5 L 697.0 738.5 L 696.0 738.5 L 695.0 738.5 L 694.0 738.5 L 693.0 738.5 L 692.0 738.5 L 691.0 738.5 L 690.0 738.5 L 689.0 738.5 L 688.0 738.5 L 687.0 738.5 L 686.0 738.5 L 685.0 738.5 L 684.0 738.5 L 683.0 738.5 L 682.0 738.5 L 681.0 738.5 L 680.0 738.5 L 679.0 738.5 L 678.5 738.0 L 678.5 737.0 L 678.5 736.0 L 679.0 735.5 L 679.5 735.0 L 679.5 734.0 L 680.0 733.5 L 680.5 733.0 L 680.5 732.0 L 681.0 731.5 L 681.5 731.0 L 681.5 730.0 L 682.0 729.5 L 682.5 729.0 L 682.5 728.0 L 682.5 727.0 L 683.0 726.5 L 683.5 726.0 L 683.5 725.0 L 684.0 724.5 L 684.5 724.0 L 684.5 723.0 L 684.5 722.0 L 685.0 721.5 L 685.5 721.0 L 685.5 720.0 L 686.0 719.5 L 686.5 719.0 L 686.5 718.0 L 686.5 717.0 L 687.0 716.5 L 687.5 716.0 L 687.5 715.0 L 687.5 714.0 L 688.0 713.5 L 688.5 713.0 L 688.5 712.0 L 689.0 711.5 L 689.5 711.0 L 689.5 710.0 L 689.5 709.0 L 690.0 708.5 L 690.5 708.0 L 690.5 707.0 L 690.5 706.0 L 691.0 705.5 L 691.5 705.0 L 691.5 704.0 L 691.5 703.0 L 692.0 702.5 L 692.5 702.0 L 692.5 701.0 L 692.5 700.0 L 693.0 699.5 L 693.5 699.0 L 693.5 698.0 L 693.5 697.0 L 694.0 696.5 L 694.5 696.0 L 694.5 695.0 L 695.0 694.5 L 696.0 694.5 L 697.0 694.5 L 698.0 694.5 L 699.0 694.5 L 700.0 694.5 L 701.0 694.5 L 702.0 694.5 L 703.0 694.5 L 704.0 694.5 L 705.0 694.5 L 706.0 694.5 L 707.0 694.5 L 708.0 694.5 L 709.0 694.5 L 710.0 694.5 L 711.0 694.5 L 712.0 694.5 L 713.0 694.5 L 714.0 694.5 L 714.5 694.0 L 715.0 693.5 L 716.0 693.5 L 717.0 693.5 L 718.0 693.5 L 719.0 693.5 L 720.0 693.5 L 720.5 693.0 L 721.0 692.5 L 722.0 692.5 L 723.0 692.5 L 724.0 692.5 L 725.0 692.5 L 725.5 692.0 L 726.0 691.5 L 727.0 691.5 L 728.0 691.5 L 729.0 691.5 L 730.0 691.5 L 730.5 691.0 L 731.0 690.5 L 732.0 690.5 L 733.0 690.5 L 734.0 690.5 L 734.5 690.0 L 735.0 689.5 L 736.0 689.5 L 737.0 689.5 L 737.5 689.0 L 738.0 688.5 L 739.0 688.5 L 740.0 688.5 L 740.5 688.0 L 741.0 687.5 L 742.0 687.5 L 742.5 687.0 L 743.0 686.5 L 744.0 686.5 L 745.0 686.5 L 745.5 686.0 L 746.0 685.5 L 747.0 685.5 L 747.5 685.0 L 748.0 684.5 L 749.0 684.5 L 749.5 684.0 L 750.0 683.5 L 751.0 683.5 L 751.5 683.0 L 752.0 682.5 L 753.0 682.5 L 753.5 682.0 L 754.0 681.5 L 755.0 681.5 L 755.5 681.0 L 756.0 680.5 L 756.5 680.0 L 757.0 679.5 L 758.0 679.5 L 758.5 679.0 L 759.0 678.5 L 760.0 678.5 L 760.5 678.0 L 761.0 677.5 L 761.5 677.0 L 762.0 676.5 L 763.0 676.5 L 763.5 676.0 L 764.0 675.5 L 764.5 675.0 L 765.0 674.5 L 765.5 674.0 L 766.0 673.5 L 767.0 673.5 L 767.5 673.0 L 768.0 672.5 L 768.5 672.0 L 769.0 671.5 L 769.5 671.0 L 770.0 670.5 L 771.0 670.5 L 771.5 670.0 L 772.0 669.5 L 772.5 669.0 L 773.0 668.5 L 773.5 668.0 L 774.0 667.5 L 774.5 667.0 L 775.0 666.5 L 775.5 666.0 L 776.0 665.5 L 776.5 665.0 L 777.0 664.5 L 777.5 664.0 L 778.0 663.5 L 778.5 663.0 L 779.0 662.5 L 779.5 662.0 L 780.0 661.5 L 780.5 661.0 L 781.0 660.5 L 781.5 660.0 L 781.5 659.0 L 782.0 658.5 L 782.5 658.0 L 783.0 657.5 L 783.5 657.0 L 784.0 656.5 L 784.5 656.0 L 785.0 655.5 L 785.5 655.0 L 785.5 654.0 L 786.0 653.5 L 786.5 653.0 L 787.0 652.5 L 787.5 652.0 L 788.0 651.5 L 788.5 651.0 L 788.5 650.0 L 789.0 649.5 L 789.5 649.0 L 790.0 648.5 L 790.5 648.0 L 790.5 647.0 L 791.0 646.5 L 791.5 646.0 L 791.5 645.0 L 792.0 644.5 L 792.5 644.0 L 792.5 643.0 L 793.0 642.5 L 793.5 642.0 L 793.5 641.0 L 794.0 640.5 L 794.5 640.0 L 794.5 639.0 L 795.0 638.5 L 795.5 638.0 L 796.0 637.5 L 797.0 637.5 L 798.0 637.5 L 799.0 637.5 L 800.0 637.5 L 801.0 637.5 L 802.0 637.5 L 803.0 637.5 L 804.0 637.5 L 805.0 637.5 L 806.0 637.5 L 807.0 637.5 L 808.0 637.5 L 809.0 637.5 L 810.0 637.5 L 811.0 637.5 L 812.0 637.5 L 813.0 637.5 L 814.0 637.5 L 815.0 637.5 L 816.0 637.5 L 817.0 637.5 L 818.0 637.5 L 819.0 637.5 L 820.0 637.5 L 821.0 637.5 L 822.0 637.5 L 823.0 637.5 L 824.0 637.5 L 825.0 637.5 L 826.0 637.5 L 827.0 637.5 L 828.0 637.5 L 829.0 637.5 L 830.0 637.5 L 831.0 637.5 L 832.0 637.5 L 833.0 637.5 L 834.0 637.5 L 835.0 637.5 L 836.0 637.5 L 837.0 637.5 L 838.0 637.5 L 839.0 637.5 L 840.0 637.5 L 841.0 637.5 L 841.5 638.0 L 841.5 639.0 L 841.0 639.5 L 840.5 640.0 L 840.5 641.0 L 840.5 642.0 L 840.0 642.5 L 839.5 643.0 L 839.5 644.0 L 839.5 645.0 L 839.0 645.5 L 838.5 646.0 L 838.5 647.0 L 838.5 648.0 L 838.0 648.5 L 837.5 649.0 L 837.5 650.0 L 837.5 651.0 L 837.0 651.5 L 836.5 652.0 L 836.5 653.0 L 836.0 653.5 L 835.5 654.0 L 835.5 655.0 L 835.0 655.5 L 834.5 656.0 L 834.5 657.0 L 834.5 658.0 L 834.0 658.5 L 833.5 659.0 L 833.5 660.0 L 833.0 660.5 L 832.5 661.0 L 832.5 662.0 L 832.0 662.5 L 831.5 663.0 L 831.5 664.0 L 831.0 664.5 L 830.5 665.0 L 830.5 666.0 L 830.0 666.5 L 829.5 667.0 L 829.5 668.0 L 829.0 668.5 L 828.5 669.0 L 828.0 669.5 L 827.5 670.0 L 827.5 671.0 L 827.0 671.5 L 826.5 672.0 L 826.5 673.0 L 826.0 673.5 L 825.5 674.0 L 825.0 674.5 L 824.5 675.0 L 824.5 676.0 L 824.0 676.5 L 823.5 677.0 L 823.0 677.5 L 822.5 678.0 L 822.0 678.5 L 821.5 679.0 L 821.5 680.0 L 821.0 680.5 L 820.5 681.0 L 820.0 681.5 L 819.5 682.0 L 819.0 682.5 L 818.5 683.0 L 818.5 684.0 L 818.0 684.5 L 817.5 685.0 L 817.0 685.5 L 816.5 686.0 L 816.0 686.5 L 815.5 687.0 L 815.0 687.5 L 814.5 688.0 L 814.5 689.0 L 814.0 689.5 L 813.5 690.0 L 813.0 690.5 L 812.5 691.0 L 812.0 691.5 L 811.5 692.0 L 811.0 692.5 L 810.5 693.0 L 810.0 693.5 L 809.5 694.0 L 809.0 694.5 L 808.5 695.0 L 808.0 695.5 L 807.5 696.0 L 807.0 696.5 L 806.5 697.0 L 806.0 697.5 L 805.5 698.0 L 805.0 698.5 L 804.5 699.0 L 804.0 699.5 L 803.5 700.0 L 803.0 700.5 L 802.5 701.0 L 802.0 701.5 L 801.5 702.0 L 801.0 702.5 L 800.5 703.0 L 800.0 703.5 L 799.0 703.5 L 798.5 704.0 L 798.0 704.5 L 797.5 705.0 L 797.0 705.5 L 796.5 706.0 L 796.0 706.5 L 795.5 707.0 L 795.0 707.5 L 794.5 708.0 L 794.0 708.5 L 793.0 708.5 L 792.5 709.0 L 792.0 709.5 L 791.5 710.0 L 791.0 710.5 L 790.0 710.5 L 789.5 711.0 L 789.0 711.5 L 788.5 712.0 L 788.0 712.5 L 787.5 713.0 L 787.0 713.5 L 786.0 713.5 L 785.5 714.0 L 785.0 714.5 L 784.0 714.5 L 783.5 715.0 L 783.0 715.5 L 782.5 716.0 L 782.0 716.5 L 781.0 716.5 L 780.5 717.0 L 780.0 717.5 L 779.5 718.0 L 779.0 718.5 L 778.0 718.5 L 777.5 719.0 L 777.0 719.5 L 776.0 719.5 L 775.5 720.0 L 775.0 720.5 L 774.0 720.5 L 773.5 721.0 L 773.0 721.5 L 772.0 721.5 L 771.5 722.0 L 771.0 722.5 L 770.0 722.5 L 769.5 723.0 L 769.0 723.5 L 768.0 723.5 L 767.5 724.0 L 767.0 724.5 L 766.0 724.5 L 765.5 725.0 L 765.0 725.5 L 764.0 725.5 L 763.5 726.0 L 763.0 726.5 L 762.0 726.5 L 761.5 727.0 L 761.0 727.5 L 760.0 727.5 L 759.0 727.5 L 758.5 728.0 L 758.0 728.5 L 757.0 728.5 L 756.5 729.0 L 756.0 729.5 L 755.0 729.5 L 754.0 729.5 L 753.5 730.0 L 753.0 730.5 L 752.0 730.5 L 751.0 730.5 L 750.5 731.0 L 750.0 731.5 L 749.0 731.5 L 748.0 731.5 L 747.0 731.5 L 746.5 732.0 L 746.0 732.5 L 745.0 732.5 L 744.0 732.5 L 743.5 733.0 L 743.0 733.5 L 742.0 733.5 L 741.0 733.5 L 740.0 733.5 L 739.5 734.0 L 739.0 734.5 L 738.0 734.5 L 737.0 734.5 L 736.0 734.5 L 735.0 734.5 L 734.5 735.0 L 734.0 735.5 L 733.0 735.5 L 732.0 735.5 L 731.0 735.5 L 730.0 735.5 L 729.0 735.5 L 728.5 736.0 L 728.0 736.5 L 727.0 736.5 L 726.0 736.5 L 725.0 736.5 L 724.0 736.5 L 723.0 736.5 L 722.0 736.5 L 721.5 737.0 L 721.0 737.5 L 720.0 737.5 L 719.0 737.5 L 718.0 737.5 L 717.0 737.5 L 716.0 737.5 L 715.0 737.5 L 714.0 737.5 L 713.0 737.5 L 712.0 737.5 L 711.0 737.5 L 710.5 738.0 L 710.0 738.5 Z"/>
  </g>
</svg>